<svg xmlns="http://www.w3.org/2000/svg" width="32" height="32" fill="currentColor"><path d="M1.408 0h29.184A1.41 1.41 0 0 1 32 1.408v29.184A1.41 1.41 0 0 1 30.592 32H1.408A1.41 1.41 0 0 1 0 30.592V1.408A1.41 1.41 0 0 1 1.408 0zm8.528 25.472c.568 1.176 1.076 2.16 2.312 2.16 1.176 0 1.88-.456 1.88-2.224v-12.8h3.368v12.84c0 3.48-2.04 5.056-5.016 5.056-2.68 0-4.244-1.392-5.04-3.072zm13.008 1.96c.788.752 1.504 1.384 3.008 1.384 1.24 0 2.036-.62 2.036-1.476 0-1.024-.82-1.388-2.224-1.98l-.768-.324c-2.224-.944-3.704-2.124-3.704-4.62 0-2.304 1.748-4.056 4.484-4.056 1.952 0 3.356.676 4.364 2.448l-2.392 1.532c-.528-.944-1.096-1.316-1.972-1.316-.896 0-1.468.572-1.468 1.316 0 .92.572 1.288 1.896 1.848l.768.324c2.616 1.108 4.088 2.216 4.088 4.776 0 2.736-2.156 4.216-5.06 4.216-2.844 0-4.672-1.348-5.572-3.104z"/></svg>